<mxfile host="app.diagrams.net" modified="2024-06-16T10:02:31.366Z" agent="Mozilla/5.0 (Windows NT 10.0; Win64; x64) AppleWebKit/537.36 (KHTML, like Gecko) Chrome/125.0.0.0 Safari/537.36" etag="-h5cBpLEwLV08JZyNAhS" version="24.5.4" type="device">
  <diagram name="PÃ¡gina-1" id="YaiiBsOL09lwt_xmxlaM">
    <mxGraphModel dx="1420" dy="724" grid="1" gridSize="10" guides="1" tooltips="1" connect="1" arrows="1" fold="1" page="1" pageScale="1" pageWidth="1169" pageHeight="827" math="0" shadow="0">
      <root>
        <mxCell id="0" />
        <mxCell id="1" parent="0" />
        <mxCell id="WZ3QITDdugbi6ojQ64TO-21" value="" style="shape=image;verticalLabelPosition=bottom;labelBackgroundColor=default;verticalAlign=top;aspect=fixed;imageAspect=0;image=data:image/png,iVBORw0KGgoAAAANSUhEUgAAARsAAACyCAMAAABFl5uBAAAAgVBMVEX///8AAADR0dHm5ubFxcVnZ2f5+fng4OCsrKxPT09WVlb8/Pz4+PjZ2dnV1dX19fV2dnbu7u4QEBDLy8tfX1+0tLS+vr6goKBGRkaBgYE5OTmZmZliYmIvLy8mJiakpKRCQkKRkZEbGxt5eXmEhIQNDQ0YGBiMjIw8PDxtbW0rKytTXQhtAAAHLUlEQVR4nO2a65aiOhCFQVRQ2gsKKN7w2q3z/g94UlVJCNoz02cd10mPs78/DQhY2dYtSQcBAAAAAAAAAAAAAAAAAAAAAAAAAAAAAAAAAAAAAAAAAAAAAAAAAAAAAAAAAADA38eoXH8ckvHEtx3fj2IQCqt15tuW70VklCF2Xd/mfCc670qS2XSd1NWK1KmDLIL3MKOZ0mMtiaZfkjrb4+y4vZWpZ8P809+H4XtsT9dNdG1Lj2Z9CxZKBSvNfC+yXOTP6e92nVQFUaKPsx4JcqwjdTlmB9p4tc0v/SJXsSPekR7YVxbms/Skzj68meaZVJLLgU/KGUeR2/zRx53HxybdpE7m/Wda0n9T3Fv3zC/4t0RXySqUcuMlHQ1G7TtuYTi8f6o0zdBm/jRLYn6h8+UdOo+e9v5/TUSOstyG4VidXJy61B2esuaWtlytNrH3rC5I/LdqLnjWpq9UUVk4F21U87cWp445IS8kZKaq83Ef6sxCl+1zzO9rB27C1LM2Z1WpVVQMjTYSIdmHUoknVuxEpXIO55n4yAW+VxeLXKZfT5mbzrXUhb3iV5tM22K1oR4nTXZKjLjDgZOraBqpqGtyYjrkSBKbR3zT9Bm2THVHNbBX/GqjCnZOf11t5mq4A/afYkfGnTOVJK+NNkVLjQkr1apjbw/FK508lpv0ztkynrS01PCrjYoOnnBbbaLoRgbdxKIJNzu7yi1UKXnKtim1EUUYhVx8qqp1EH0MrvvhwsnPWbJZrpa9Qj+SVNWpE3R7+9Xg3ExS1HVymf7KdhOBZ20mKq2wyVabk/r1PigJHWQoIpW6bp+J2zlBlxelRZcGl+ik8W5nYeJ8iqs414ZyvH5r6MzVyP9qftnRXPKqjUokK2OYaKMTjMqxP/T459zzJPYZmnldJu2X8CBJG6eAFc3tBg5UKoDv9pLtDWLRIbb3BZ61UV++5AOrzUqvadEqxXLMh2mtLFzaHEIpM3dfkl4lDroy2t1tuuUDDhi+eKwONPMItxRpPe1Y4k62/n3oE3KfW2OeP23Ur7Tlg1adYtgbbpI2qLraKRWV7XPrLbnkZtFmrURMOV3TDPWNdJtSeGbkftQlsTa7eZqOtjoYif5ORxg/qt3SqzapMW4o3t3SZka/9ZoLTOEMwoyx4SaexNpoCRM9qjI0nsnRsu9rbfhlHSeo6OEtSdK/NBHst06tdF5QCbLq3/tNMNqreODAGlo9fq3NzIxkJhmHAtCsPC8lzkgbyewTKkqd5h0yW6hIQ7noV5taJ+Ms51/rThv+nKt31wSfJISfxpTt2yr2IRbyOBMukmV71i+4GxBtssaFRs2hX23S0LQTc0q+D9qMtTaZamJ0f3IL7xa70r3EUtf9oObUmpn6bSh/og3dvo+ZaGdD0/N8ihJDLYf1JXQa3Dlr0zFd39XKRh3IzK3hsR50S5uET7LjF7VZ3d234zTne42CTJ1Kns0oEGSrgRviwNFmabOmaWcsbu9ni/uC42yiStH7fGzpZJ9rMwrv4STlWxvy5vCykIAZqWSyK0wvGzjarKzfpJRDnOkVxw1pQtpcTRuUS8Yehk6YCp9pc37Qhvse39roVmylPYF6vqEa0X7d0iZTnayRg+uzXYHq8wuok+2ag0Dn1rl0dKYzKg+x+cJ7bejuzdRAs4pLFPjXRmlR81Q6l5hJKbCOizRuaVPYNkWpIcsSEodRbn9l1mYpmYgE2L3pYNFrQiq+8s9jirqgnTN5p4fqwL82O3L65AdZcVaWT9bqQhWZOqW1oTiq7SMj3rc6nopucuMJ1I51kr54X0bRnMXmJujGERtlGW+VDtJPtRmGraVQDrFl4F+bFSfZ7MDDTUr6cbnba2lD6dYpTWaFTrOTjNI157LlJykpk7nVVpYKyTUfteEAdFeA2NvG/rXp6c441ssGZim9cLRJQncirhgtHWlybT23/bYYb/UcI27K88zOw9vakPLXllHUMZ39a7Owc2He6TVL6ZQPA7Yuz05he704oGVTo87QlnPSZphpiSvrZpODXrg4ySjzRpu9aEOfL1qvp+I5y7xrE4W2c0mTDzEk45pK/b+y7p3CYfCwWp5GxfqwKB3L9ZwhSg7rsrUtM5kvnEtZFEWT5lCl4Ej+tF7Ol95GCp+bdxt39ZpJODmcaQCF/sm/sn3Zmk+9BtTyu/sEc94myiW/UkEPl1/bunxBbTi4l6Z5jSjRhD/0ukJfHR/inz7Z5hW1Cbh+b4o4iwvJpLaVOTst3295SW0CszlwX2KoX/36f22RNl9X8o8h7jXSNNsrxWPt/hWTTqcz+v1tfx5xvdmv9pxsDlyX0zHp9Zyd7tdA+v7BtLpxO7vHP9E6xEMn85yf+l9ZL0C5kYXMbfWSyeM/ko275TxGpgEAAAAAAAAAAAAAAAAAAAAAAAAAAAAAAAAAAAAAAAAAAAAAAAAAAAAAAAAAAPgf+QfHWlS1AuvniwAAAABJRU5ErkJggg==;" parent="1" vertex="1">
          <mxGeometry x="290" y="300" width="128.78" height="81" as="geometry" />
        </mxCell>
        <mxCell id="WZ3QITDdugbi6ojQ64TO-11" style="edgeStyle=orthogonalEdgeStyle;rounded=0;orthogonalLoop=1;jettySize=auto;html=1;entryX=0;entryY=0.5;entryDx=0;entryDy=0;" parent="1" source="WZ3QITDdugbi6ojQ64TO-4" target="WZ3QITDdugbi6ojQ64TO-5" edge="1">
          <mxGeometry relative="1" as="geometry" />
        </mxCell>
        <mxCell id="WZ3QITDdugbi6ojQ64TO-4" value="extractor" style="rounded=0;whiteSpace=wrap;html=1;" parent="1" vertex="1">
          <mxGeometry x="504.78" y="370" width="80" height="60" as="geometry" />
        </mxCell>
        <mxCell id="WZ3QITDdugbi6ojQ64TO-12" style="edgeStyle=orthogonalEdgeStyle;rounded=0;orthogonalLoop=1;jettySize=auto;html=1;" parent="1" source="WZ3QITDdugbi6ojQ64TO-5" target="WZ3QITDdugbi6ojQ64TO-2" edge="1">
          <mxGeometry relative="1" as="geometry" />
        </mxCell>
        <mxCell id="WZ3QITDdugbi6ojQ64TO-5" value="embeddings" style="rounded=0;whiteSpace=wrap;html=1;" parent="1" vertex="1">
          <mxGeometry x="691.78" y="370" width="80" height="60" as="geometry" />
        </mxCell>
        <mxCell id="WZ3QITDdugbi6ojQ64TO-16" style="edgeStyle=orthogonalEdgeStyle;rounded=0;orthogonalLoop=1;jettySize=auto;html=1;entryX=0;entryY=0.5;entryDx=0;entryDy=0;" parent="1" source="WZ3QITDdugbi6ojQ64TO-6" target="WZ3QITDdugbi6ojQ64TO-4" edge="1">
          <mxGeometry relative="1" as="geometry" />
        </mxCell>
        <mxCell id="WZ3QITDdugbi6ojQ64TO-17" value="Query" style="edgeLabel;html=1;align=center;verticalAlign=middle;resizable=0;points=[];" parent="WZ3QITDdugbi6ojQ64TO-16" vertex="1" connectable="0">
          <mxGeometry x="-0.0189" y="-1" relative="1" as="geometry">
            <mxPoint as="offset" />
          </mxGeometry>
        </mxCell>
        <mxCell id="WZ3QITDdugbi6ojQ64TO-6" value="api" style="rounded=0;whiteSpace=wrap;html=1;" parent="1" vertex="1">
          <mxGeometry x="318.78" y="370" width="80" height="60" as="geometry" />
        </mxCell>
        <mxCell id="WZ3QITDdugbi6ojQ64TO-10" style="edgeStyle=orthogonalEdgeStyle;rounded=0;orthogonalLoop=1;jettySize=auto;html=1;entryX=0.5;entryY=0;entryDx=0;entryDy=0;" parent="1" source="O65HJ4wUFkpnHU9ij8jX-1" target="WZ3QITDdugbi6ojQ64TO-4" edge="1">
          <mxGeometry relative="1" as="geometry">
            <mxPoint x="518.78" y="260" as="targetPoint" />
            <mxPoint x="450" y="193" as="sourcePoint" />
          </mxGeometry>
        </mxCell>
        <mxCell id="WZ3QITDdugbi6ojQ64TO-18" style="edgeStyle=orthogonalEdgeStyle;rounded=0;orthogonalLoop=1;jettySize=auto;html=1;entryX=0.5;entryY=1;entryDx=0;entryDy=0;exitX=0.5;exitY=1;exitDx=0;exitDy=0;exitPerimeter=0;" parent="1" source="WZ3QITDdugbi6ojQ64TO-2" target="WZ3QITDdugbi6ojQ64TO-6" edge="1">
          <mxGeometry relative="1" as="geometry">
            <Array as="points">
              <mxPoint x="890" y="470" />
              <mxPoint x="359" y="470" />
            </Array>
          </mxGeometry>
        </mxCell>
        <mxCell id="WZ3QITDdugbi6ojQ64TO-19" value="Resultado" style="edgeLabel;html=1;align=center;verticalAlign=middle;resizable=0;points=[];" parent="WZ3QITDdugbi6ojQ64TO-18" vertex="1" connectable="0">
          <mxGeometry x="-0.0135" relative="1" as="geometry">
            <mxPoint x="1" as="offset" />
          </mxGeometry>
        </mxCell>
        <mxCell id="WZ3QITDdugbi6ojQ64TO-1" value="" style="shape=image;verticalLabelPosition=bottom;labelBackgroundColor=default;verticalAlign=top;aspect=fixed;imageAspect=0;image=data:image/png,iVBORw0KGgoAAAANSUhEUgAAAosAAACyCAYAAAAqAIVbAAAACXBIWXMAAC4jAAAuIwF4pT92AAAgAElEQVR4nO3dP2wkaV7G8bdgJSRA8pw4dAG6brdEQMR4IzLWk5Gg8WSIZDwRiGQ8EimsRySXrS0SIsaOCMdGCCERjE2Opo0INkHtbukCAnRjcRJHgAq9s0/t1vR2Vb3vW29Vv1X9/Uij25uxu7q6+616+v3ze7M8zw0AAACwyS/xqgAAAKAKYREAAACVCIsAAACoRFgEAABAJcIiAAAAKhEWAQAAUImwCAAAgEqERQAAAFQiLAIAAKASYREAAACVCIsAAACoRFgEAABAJcIiAAAAKhEWAQAAUImwCAAAgEqERQAAAFQiLAIAAKASYREAAACVCIsAAACoRFgEAABAJcIiAAAAKhEWAQAAUImwCAAAgEqERQAAAFQiLAIAAKASYREAAACVCIsAAACo9BkvzXbMJtN9Y8ypMebIGLNnjLm2/3+xWs538fUAAABpyvI8563p2WwyPTPG/Kkx5lfWjvxgjDkkMAIAgFQQFns0m0xtL6INitOao9rAuL9YLT+M7gUAAACDwzB0DzTkfGGM+cLhaHZI+sYYczD4EwcAAINHz2KHZpPpI81LfBlwlMvFank8mJMFAACjRFjsyGwyPdaQ816LI7xYrJYXSZ8oAAAYNcJiZLPJ9FAh8XGkR36yWC1vkjlBAACwUwiLkZRK4TyP/NB2wcvBYrW839rJAQCAnUVR7ghmk6kNifMOgqLRMPaV5j8CAAD0itXQLTiWwonhsVZTH6X8egAAgPGhZzHQbDI9Mca8DQiK/xl4yKcq5g0AANAbwmK4C80ndHVrjPncGPOjmp//RcNjvdQqawAAgF4QFgNphxWXnr6lSuAcOvzsucPPnM0mUwp2AwCAXhAWW1islqcKg1VeayVzUStxv+FoP9Hv1Pm4wwsLXgAAQB8Ii+1tGha+ttMabZhc2+O5rkdwaX9WAfS64VkVWwICAAB0irDYkgpm3+pRliqifVRRF7FuKLr88zaA3jU8s8ezyZTdXQAAQKconVOiuYCbhne/DXnq+Vtnw92hw9Z8dcPQ3/YU2h5GleWZN2wX+Hw2mV4tVsurhuMCAAAEGfUOLlo5bEPXD40xv22M+Vr/tB9aG3GxWmYtnk/di/1sPfRp68B3Nb/D3tEAAKBTow2Ls8l0HnF/5rLPF6vlPOD5NAW/jY+rwPtm7a8f1JPp/TwAAAB8jHLOogpmdxEUTcUwtYvacjdVwU89h5elv7rTCmuCIgAA6NxYF7ikuC1e3XzF2sUsi9WyWPByqR7FTYtnAAAAohvrApffTeA5rKvrWWzsJVyslhTiBgAAvRtrz+IPEngO676o+Td6CgEAQJJG17OohSSxLUuB7oPvY88m06adW4ILbNvSOfrPC0roAACA2MY4DO07XPsfxhi7IObnNgh2tHDkkQJnVbmeoGMqhD7V/306m0yX2q/6Ym3nGAAAgCCjK50zm0xtWHrp+Wt3fc0JVM/ngRa8HGhlc9AK64ZzvVRoZFtAAAAQbIxh8aZhfmCVS606HozZZPqhYYcXo1XUNlRe0dsIAAB8jTEsugSoKueL1fKk+2fZXkWx7jq2kLet2Xg2hNI7WZal9MEs5qzOi//N83wrPbZZlh1q2sRh6XP+oHmvZ9t6XgCA8RpVWNQcvkXLhxnEFnotelCtWw1RJ3ueiYXFKvZ1tIuKrvI87zSAZ1n2SMdqes/tczrK85xeZABAFGMLi01b6v2VMeYvHB4q6cCoUDxv0YNasD1m/2SM+UlqvY0DCYtl11317Cko3njsSmSnHhwSGAEAMYytzmJt2ZzFavmXa1vnVTmbTabJFsFWsLOB8UXT7i8N7OrsP7EPaUvwOJT4QTW7Kv1dlmU3GiqO6cpz+8rH+h0AAFobW1isCzt2eK7YOu+64XFsj91N4oHRlvm50Cruzx1DcJ2nOufQva/xjS8UGs/UI9hKlmXHgdMNvtDvAgDQytjCouuWescOPXI2MF4MITzZ2pAKwXbnmlcaXg4x1WuD9mxJo3mWZW2/cLTZ5zzFPdIBAAMztrBYN1T37Zw8lZA5dAhVj4fU26beRrva2fawPnPoQd2EnsV4bPi+aRkYnzr8TBe/CwDAR6MJiw5Dxp/skqLAeKSyI3UeB+wKs3Xa+s8u0vnp0J77yOxFCIwAAGzNmHoWmxZnfG9LPW3tV7cYwQbJZ213QbE9k3aldl9zIHUs+5zfGmN+y/PXf97R09plBEYAwGCNKSzW3YiXVbuXKDC+2PBPNigeqocuiELiqTHmZyrp8342md53FRrtaubZZHqhY4XWYPw68tPCN/bU0wsAwKB8NqK3q66HsLaGoF1VrHmJX+mv7OKXoza1B2eTqR3i/lstOimbah7kfqzt9/TcTwP2xP6exWr5DzGeU8/utKtJG/trvdOHmr/pU7KmyeMsy07zPD/1+J3rFvMWQ+asAgDwiTGFxbph6MZhZLswRD1+B+pRDApyqlV40dCzZ3uZvp5Npr/TNjCq5/IkQoFu07Jm4zZ96HKbO9VNPNKfacuH+zLLsguPHV+uWoRFai0CAFob0zC0DU3nqqe4vmjF6cZsy8/YuoUhAU5DzmfabtBlCPhHtvi373FKxzu2Q9o2fEQKisb1ddo1NojmeX6S53mxyrxtqHbuWczz/CLweHf6XQAAWhnVdn9lGpo90HDiRZfb2dngpuAXEtpeL1ZLn2FJe7x54PCoLRX0m8aYX431XLriud3fbZ7nsXdNqZVl2Ulp2kKImWvvYpZlvts72i9LB13vVw0A2A1jq7P4LdUcvLHhp6ugWFp1/KZF796Xmt/ow7fn80GLeA5qgqLZtGIcm+V5fqadc5pKL1VxLn6u0Hfg2MN4R1AEAMQ0+LAYELRiHPNRhFXHZReeK6Rdg4YNMq/tfE67iMehXiRh0UOe5/MWu6R47ZRjw1+e5wc1+4Hbv3thf4agCACIadBhUcO/bxXc+jrmieb2PY/4sLZX8sp1pxj1lDbtBW3//UA9q0VPZG1Y7HKofqy0sOZ1wOlNNbzsxc5DVCDM1LP5uf1v/R1zFAEA0Q02LGoxyRv93+ddB0YNOd9rnlqsBSVlU5dV2yUnFUOgdoHPTIt11sNfXVi8DXnS+OgscDi61TxL27Op3k0AADozyLCoYLheU/C5ehpjH8sWur7SkHPbsilNHruGXvUWlldT22HIJ4vV8rCmh7CuJ4texUB5nn8ILLjNji4AgOQNKixqruC8Zgj4TQeBMaTO3b+2ON5zDXW7OCvmqqnkT1PPZN38SsJiO4RFAMAoDaZ0jubz3TiUjCm26YsyPGeHn9Wr6OJBw8MftC9zG8/abDW44Tz2VQOyypO2e2DHlHrpnE2yLPvgOUXhIc9zp3mqAABsyyB6FrVS+N6xtmCULfQKClAu26adO646toHylcPj+a6QbsJK6O75voZdzH0FACCq5MOievZuHG+sd1oBHDv4VC0mMaUFJSeOq47ndmtBh9XMXiukHdQG2Fj7VAMAgHFJOixq/uE7x6B43WZP5zpaMLK+Nd9SQ8WbFpTUBbOPQ712tbJDkeVpxP19awNspGPsumSG8QEAiCXZsKhFHm8cftS6XKyWRx33jp0pIBaFrg9q5hTWrZouB8tDPWadLyKVBapbCU1YBAAAG32W4suicORa9LqX/YxtEFVP531d8WoNm9e5X3vMI4dh9hhzFw/1OMWf/dLqaMJiHFtfZAMAQGxJhUXNz7vwKFXzQgtKeuG4Wrh2V471x7DzK4udaCp+5VJzJltRr+vN+lCpVkkzXxEAAGyUTFhUUPw3Y8yPHX7cDgUfpVTqpaQuLG6co2iHs2eT6SvtDlPWea8pW/xF5dsDHLLrCwAAvUoiLJZqKLoExf8xxvx5okHRNAxFVgYzu0JapXKeF/Ua++w1RTtZlh0ElMIZ9fB/lmWP1B7KUyCqXqMHvR7FnyvtjDMIpXM90P8+cij1dade/Rud882Qzrksy7Ly+/yoYQMAU3q/70vnnlx7CDiv0byndWjbu9O2C0kU5faco1h2V7rYzDWfcKsXnNlkWleYubansDQMf9rnedih6NR6GIdWlDvLsrMNW1A2Oc/z3GmKgc/rked55vncoz52lmV2Hu5xwM5H6651Y0nyS1OWZXYUoThXlxqwLu50DbDnnWyvv26gx7p5tn2fCw+q/nCzrfdc53WkP7HOa2vvKW07zC637SqphMX7yPsu35W+td40LUqJRWHvZzUPF3VXlra0uOZMr09SizOGFBZ1g7kP6Fl84XqxHEJYzLLMXlhPO9hD3VYMOMnzPIm2o/M8duhlasvWcD3N8zylnZUOde4hX+59POjGetbHjVXh4LSH8+r1PaVt+9nltt1kUHtDe3isRv+l6jTWbXMXU9OctSS+TdgV27PJ9EaLaqYqz8NK3nAngbuxjKIuox2Cz7LsRqWuYt9MjB7zrT2GgvlW2F6VLMvudZ5d30yMjvFO573VfcRtSNR7/K6HQGXUnmxP/SLLsouu3ncbEnVei57Oq3hP7xW8k0bb7kwybdtVKmGx65vmbcePX6h90xMYIt+fTaZXuuCvNwjmRwbQBf/LgF9dDnEoYp2+id/0eIG97/viWgoUbzu6YTax5/1eUx16ZW/gNqxVXDP68lzve+uqEAWd15lC4jbOa1oKC7UVNLaFtt2LrbVtX6mERdu9/b8dPn5fN+W5gummQtt9BdY685q5JlOV8IEjXdhCh08GH851M3nT8x7X9li9fRtXQJlvMSiVvcyybN5XuNAXofueetya2Pf9qxg9UDqvecAc4y7Yz9U8ZhCOgbbdu17bdogkwqLmE/5Nh4foJSzaFdra/s++4T8wxjwxxtiSOOeJDDk2XZBOI+5FPWq60LxvcTEddFgs3Uy2ofObSqlH7aueb5hNHitcdHpDzbLs1GOr1T616oEqndc2epGqFEH4aptDsQXa9tb00rZDJbHAxXy3OKRpkcB/GWN+I+DhnyRcaqdXDouJetkRp0mqC1y0GvC05Qq5yzzPvXpxU1rgop6Zdz7H6IhdBLEfuySFbtg3EVdBdsGe+2EX5WZ0I02hN7HOgxZGuC4Q893wYVvs4szjWO8rbftTu96220hmgYt2GGkKKZ+VeuxeaI/mqmHfMraz+07Ta3xC7+KnNLn/TBOg30a40Gw9jIfSxTaVFf17sXtoO7yZbCzI30InPTADCYpG5/9GvWC1Su9p6kHR6HO3lUUPtO1gg2jbbSXTs1gI7flSwCnve1z8tw2ihJ8SrYSum6dxvlgttzqHxrNn8S7ClohF0d2Ca/FVX6/zPPcOi6n0LOoLWsiCni49iVGCItLNZFnUCrRfUqsWMakHZ1+fs6MWw2F36oVo3QMzoKBY9irP88rFAQPpSdokSu8Sbfsbu962Y0gxLB7V7JNs1IgO2KYunMrkNA01zLb5Gnte5IbiLs/z0LlWqYTFB4+L37JUMN/oIvuoFMwPIk0ujzINwc4Za9H7ZPdwvwi9sbWsY3ed5/lRyHFLxz+NGBQ2ve+mtLtV8WW+bYBrrFPa8j1dV67fa0rnVXyeY36mjV7HgzZhgbb9jV1u27EkFxaNW8/X5WK1ZOVuC6m/xiMMi616ChIKi02KYsoXLuda2jGjbcHfVj0QLcJS1OK6Wjh1GtAb8Sy0sHGkeWpLFfh33p2i9N77FkF+0Ly+2vMN3FVp3bV6k7y2qNPc5qOWPUumzRdMQ9sunsfOtu2YUg2LLhevz7ddt3DIbM1Fh2LlW1sYNLKw2HpIaSBh8bV23AjqCWnZu+W9aKh03AOtbPcVNKXA8flcePa8BS0I0A193uJmvtQNtdX8MgXWU8c9pRvbksJa3QhVk0udV6vRFb2+Jy0K9xufbUE3HJ+2vaNtO7Ykw6Jx2y/6NrUt6rZNBbeLuRkf98yuC9Qpv8YjCou9zz3aQli053gUaW7RgT6/vjfWhzzPg+Ym2/pmARfvxp6tNgLnWHnf4Fr2vp0rUEW7iTX0vtzpc1Yb4Fpsv2lir0Zee05tVmMH9a7Rtne3bceWclhMuudrnRbYnGk+jtGH4UyrvPt6DlVv5vpe2TZEftBrPG9ovFt5jUcSFqPdeBIOi9HLPLQYFvW+oSqcfOXxK72VtVCB3qb2WebVA6HHD90K1Xlfc18VvS/Ok/1bzE8L7sFy1aKGYdD8Rdr2brbtLiS7N7QWV7xu+LEkChurh+6n6qX7Qn++7LMQ92wyrZvXsr5X9s9mk+kHvX5fNzw02wCGOU+xVlZknVxcdVNoavubePWC6xu+77f1k77eU/Wg+YSXPc+fD+2p6Cwomm/Oe673sihJYkOcU1BSGEkyKJpvzu1CZd98TSNUfPBB2+5QD207umTDopzpQ1tlq1vU2bmVKvVjg9ivbviRx7PJ9O97ejq+2wTtKdT+XsPPsQ2gn1t9Cz5JpeRBh6IP1xU05NJUP3Wd70KAY88hsfMuQ9ImGg7z2SrUKVCoZyOkTM6rPl4DtZ1DHa/rANxLUCy0CIwnPe7wQtvuWFdtuytJh0XHQt1nfReRtsO3mh/osm3UH/YUtros4PnXFOpudK2QeBhr9VzibntYoed74/f9wuRz8V1usZh6ZR3BDaaOxXxDzuW6rqZhbDYw+hxPvYq+5Vru+gyKBQWTc89f2+spMNC2+9NF2+5E6j2LNjCeNXwL6W1JuQ1Ms8n0VHMNfIY63miFd5e6fPxf3/a3mkRda+/vma2FtSMhsdDHxdW3bTtPGNdqWZ8VwFEXcvjQjdunJ8Yl/PjWbnsYwDUg5PltrYadVjj79rD18R7QtnvSUdvuRPJhUTZ9eK9VOPq4j0UkKhY+17y/kFV2Vw3zCtvy/ebla5eHou80XHCucGh7EDMFxLO25TUG6LaPYKwLuM8wjQ+fkLDse4hqA5+ba+256Wbqew1L+nOuYXXfuYqvEzgn3+vqnssWhy3QtvsXrW13aRBhcbFaXpQ+WLdaoXvUxw4jGnK+Uc2uNoVFP+512eFw7okmDl8HfFt10ebcu3ar8NbVnwMNL58oHO5SD+ImfV5cu3qtfS66KeyX6/M6TBWeqoT0KvY2/BxokOeka4lvaOoyMNC2+xezbXfmswReKFcn2uavlw+zQt1phB0Ayh7rwxl9yHixWl6tf/A19F3eK7vN9kuxN0vHcPV5gY0+yV7zfnx61lK4ofi+DgelbenW+V5/vHYv2RLfAJXSOV14XptjbV+4CW27fzHbdmcGExZVXLqXZe1akHLWcpumKl/YUjt9bKWn+oiffGtRbUX75w+MMX9sjPmx48NttSAoknHX8022i2N5haUUepLtcGmWeZXPPNh0I1SvhO8oQQo31Ca+X4ST6Sm1w6Aqju58v7GLeTr4XNK2tyBW2+7aUOYs9kKlcG5UNLWLoFh4vq1yNBq6nyssugbFF+q5BPq+uHZxQ/GZO9zFlI5QdWXE1lXdNH3nTT+ksC9tHa2C9rFMsP6p72vcxYJG2vb2xGjbnRrSMHSntMo5dO/KEHaF9H3fu6Nokc2VY+/Cfxtj/mixWv5jD08Nw9Dr8Ie9qXt+63bhM+fnUZZlY5qj6hsWh3DuYzinG8+6l10slqRto9JgwqJ64o71gS5/qOfavq7tB9339+0cvp8YY/6uxTE/rpDuY6GO+S4ouu7Nab91HdXtLY2dNIbPg8+Ndq/lXN9tqXrOvpPjh/B++55Tiqu6fZ9TF4scaNvDsJXnPKRh6H29SMW2dcWftzHKuqytuK5ju4tfLVZL+6H8RcPPNgXJPQXGzgteK2y/dwyKd1pMRFDEGHU5xSR1YwyLg+9ZDJg751x3cMfsctvuFHMWP9W0iOPSXmxVKNw0XKRsqPwzh1XEj7suVzCbTE88Nq+353jYR+1KAMnjOgBgUGGx8943zR+83PBPRW3H9QLgdWFxrp89dJi8+nQ2mXayOs+uvDbGfOX445d9FTnHMFFjcueM8VqQanHxrS64oG2jzpDCYm0wc3kAlY1pclIKdw9aCXxYsRCl7vE+/rxHYHwZc4W0tia88pg0/aKPcj4AhiPBVcOtJbwTza7tBIUBGcswdO23XwUn23O30LZ9lRTuTrS1235DEfC6eSPfNnzN/XPZ0/NNxPmLx47FW4tAvO0tjwCgc9vaAcNBqs8LGP+cRa0Anpd2Ymnccs8Gp8VqeVI3HKvdUep88i1RYex1zc8XoS3KsI/mVW4aUl8/5iFBEcAmATUMhyDVUJbylqrYcUNbDe1FtRPfrzXCvUgLSmqfz6Zh68Vqeaq9m9d1Eto0rFy1wIYVzwAAoNGQwmLlt671YGZ7E2eT6bymyPZTrRBuoy4s1k1UXg9wdxru7iq0HW4IjHcKp8yRwS7y2efcboGWDfFPxfn4jlx0Ufw5Nt9rZ3K9pQE9uOzVv9kut+1OjW4YWiHwxqEO1anjgpcqdY278uKlYeYj9SZ2XqZm7XhGK54PWPGMHebz2R9bPTvfYDWEsJhCQeu2xlBYPAW73LY7NZqwaIOf9nX+yrEw517Lb5jBq7PVo3fQV5kaHc+e6zkrngG/osxZlnVetqtHviFjCHMWB9+zGPCcmD602S637U4NIiw2LCZZaoXz3GMbnAfVTQyaI6gFMnWBtLEh9z0EbIe57aKdPo8JJGoM4SKU77lPsyxLuncxoD5giudUW6VjA2oibrbLbbtTY+hZ/DVt+ee6zc+15gi2aWxNF5poQdCnlI56Vym/ANTb2RuK6iY21XxdN4TRCJetWsuS+eKcZdmx7zZ1FNCuRFjsyBjC4g8df85eIJ8tVsujCEO/tWEx1mIV9ajeeyzGOVEtSfs7Z001JYFdpKLMPhPhxzZ1wzdoHA9guO7K8+ePEjon38/XpooaoG13aihhsW2jvtUcQd8LykaqYfgDO5RtjHmlhSrFN1vfb7jfUyoi/k7fOL9SvcgmRTicqq7k29lk+sHu5OL4+8Cu8AlMe+r9GQvf6+BeSj1xFQZ5TloF7Tp9qkBd3Hq73LY7Y5dhJ/8kVS+xqgxOHdubeKpw19dzfdSm51Kh7mLDSq07u4q54ffe1zz050OqqZhlmc8H8zbP81EPJ/i8Hr6lFbp87Bi6eH6as1bXXtbZclgHeZ4PvoqAetR+FvCrs4S3yrPndeW4a1XZVs8py7J7z2LcD3meO3ee0LadjKZtd2nMO7gUtQR7C4rmu1I1QTTc/L5iSf9j9TZWqV0ERPFt4Duau+czXGVv6L1eS9ZlWXaRZdm87XZ1uik27e60SZSRmQ6FvD9bO6csy84Cdm3Z6mdwCHa5bXdpKGHRdwj1tWoJji0gvaxZGV43P5HJ0MD3+d4gnm9ryMreTOzx9UXS3lTazkcOGcp8rOfRmyzLTlznFmrRh+80oN7PyXy3qOWlw4+WPRAWne1y2+7EWHsWj2eT6cXQFnioF7TpYve9va31/+vmvaTeIwD0Ls/zi4bdljZ50/dNRT1Qz0t/ZefbvdXfBwkMVkY31V7ClY5j6+beeCxGOQ04VG/nZL4Lim8CfvWMoVI3u9y2uzLWBS5TvQF2gUeuBR7HAykrc9RQ2mJTl3ltKI61sAcYoZBw0dtNRSGmqgfqZcuhq5BzN32Eq1Jvi1GPi1NgVAgOWS3cS2BsERSX9Cp62+W2Hd1QwmLbsPNUDdSWlZmrrEySq4M157Hpw/p8rde0br4iZRaACuqBCNln943mGXVSfsU+rhZsPG/40eChqxbByihczWMXt7Y3xyzLbjact3Ng1PXTt5ak6eqczKfvZ0hQtI7pVfSzy227C0MJi6Fv+iaPlebfa3vA5KgnsGkCenk4mvmKQLjQEirPdTGP2hOhm8O9x8reNkNXJ4HByuha+t4et20PiG6gpw07cTkFRoWq0PekOKeLGL06pfPyeT/XnVOEO9gut+2oBhEW1dtme89eG2P+PeJDp7wA5qRhzsWeAuNhQ/V/hqCBGroRnwe+RlP1RNy3vbHYmnvqVfPZkarspW8vhMrGtL0h2i/fCwUsr+PbXjzdCO9VHq3pvF0D41WL99QoLNhzurLvq28vk30dNMzoel5V7vI8Z5vWQLvctmMbRJ3FdZp7eKQAGfptzWh/6GS/sSkIvmv4sX8xxvx+xb/V1mZMGXUWP0WdRTdtnp8dgqwoW+XjQV/Q7HXlpqmGn3qvjhTY2h77dZ7nQfMQFdh8V+fWudWX8Q/6Y/97X3+Mrt0HbUKUhmZrv/AH1l6sO+a8tJ1rcX7FteeRzsm3yHaV1vX/aNvfHmdn23YsgwyL6zR/rwiPrnWrHharZepbWBnVVqy7iP+fMeaXK/7tfLFaDvJbKWHxU4RFNy1vKI8UAHxr39V5KI1g3CtcFF/g2oSldZd5nrft/YgZrPpgX9vDusCo9/Qmws06uXNzQdv+9jg73bZjGEVYLNPClUOHNH+5WC2d3wD1Zp4qlBYfguKbxlmXNR3topzAi92gdm0pIyx+irDopu3z0+KGm4gX+j5EuZkMNFg905BzpQGeV5SgaGjb68fa2bYdw+jqLNpwZOsVavjV7t/8Qiv+1idxOw8/27I79qE1j6X8QdvT373XloRe1usl1gj5sDywawvgRzfowxaLPvoW7Wai4c7DAVVQeNEUFM3wzutOQ89cuyPb5bYdw+h6FutoDmAxZH3gsjWfgqJruYNXPtsLzibT9X1B79SVbUrzfAoHnkNEXj2nqaFn8VP0LLqJ9fwG0hv1Ks/zTlZJdjCHMSZ7sz8KWSGslclfJnpe17FL5NC2Nx5zp9t2qJ0Ki7409Dz37LaeLVZLp43pbcHwDp/+i8Vq2fs2VrEQFj9FWHQT8/nppnKaYGhaKlR0ujhPqy8vEhu2c1rYUseuTNV5xZy/1oYNv6ddhAPaduVxd7pthxjrdn+xnARcKFNZUELJHKAF28OjsiXPArYO68q5hik7v5loiHc/oeFbuyK09RCtXruDlqV1YrnV+8nuLD3a9bYdgrBYL6TsTAo9XHcuQ+wAmik0Hb3jDgAAAAJmSURBVKjO67bmO9lQMbM3uD538tBN1fYwPgncSzoGe9zPY5YOKYWF2ZbOywaUJ3ZEpKkEC7qzy23bF2GxXki9LKd5EB1vN/jPHT42sHMULk7V0/a6p96IB+3k9Pm2Q4Xt7dBUjyc99jRelgJVJws+7Guq85o57JoVw63OaZ9dWdKw623bFXMWa2xYgOLCqX6jY8HtUIMtmVNgzuKnmLPops/npzl9R2vltNp60OR72+NxlWpPQ6ng8FHEItRGYao4995voJrLVpxXzGLeF9s4J9p2mF1u21UIizW0d7TvhfB2sVo2Bhf1LL6P/Zxdjw8gHtVwK//Zd/iiuVQx32JXkJuhlkzRopFiV5ZHjtfN21LVB3utnad2Aw04r6KixU1xXkMLBfjUrrftAmGxhmfZnIJX+ZyCai6Wh6aLi1OhHACrPqz24nvEfEUAABALYbGGApzPFkFL1/qNkZ+nDZJzQiIAAIiNsNhAw8UuWwR93KKJXVMAAMCYsBq6gcLfYcMKqSVBEQAAjBE9ix40h/FQcwZNMXF1yDulAAAA1CEsAgAAoBLD0AAAAKhEWAQAAEAlwiIAAAAqERYBAABQibAIAACASoRFAAAAVCIsAgAAoBJhEQAAAJUIiwAAAKhEWAQAAEAlwiIAAAAqERYBAABQibAIAACASoRFAAAAVCIsAgAAoBJhEQAAAJUIiwAAAKhEWAQAAEAlwiIAAAAqERYBAABQibAIAACASoRFAAAAVCIsAgAAoBJhEQAAAJUIiwAAAKhEWAQAAEAlwiIAAAAqERYBAABQibAIAACASoRFAAAAbGaM+X9AaQJrSYcJYwAAAABJRU5ErkJggg==;" parent="1" vertex="1">
          <mxGeometry x="867.06" y="320" width="102.41" height="28" as="geometry" />
        </mxCell>
        <mxCell id="WZ3QITDdugbi6ojQ64TO-2" value="" style="shape=cylinder3;whiteSpace=wrap;html=1;boundedLbl=1;backgroundOutline=1;size=15;" parent="1" vertex="1">
          <mxGeometry x="860.27" y="360" width="60" height="80" as="geometry" />
        </mxCell>
        <mxCell id="WZ3QITDdugbi6ojQ64TO-22" value="UsuÃ¡rio" style="sketch=0;outlineConnect=0;fontColor=#232F3E;gradientColor=none;strokeColor=#232F3E;fillColor=#ffffff;dashed=0;verticalLabelPosition=bottom;verticalAlign=top;align=center;html=1;fontSize=12;fontStyle=0;aspect=fixed;shape=mxgraph.aws4.resourceIcon;resIcon=mxgraph.aws4.user;" parent="1" vertex="1">
          <mxGeometry x="170" y="370" width="60" height="60" as="geometry" />
        </mxCell>
        <mxCell id="WZ3QITDdugbi6ojQ64TO-24" value="" style="endArrow=classic;startArrow=classic;html=1;rounded=0;entryX=0.015;entryY=0.5;entryDx=0;entryDy=0;entryPerimeter=0;" parent="1" target="WZ3QITDdugbi6ojQ64TO-6" edge="1">
          <mxGeometry width="50" height="50" relative="1" as="geometry">
            <mxPoint x="223" y="400" as="sourcePoint" />
            <mxPoint x="311.78" y="400" as="targetPoint" />
          </mxGeometry>
        </mxCell>
        <mxCell id="WZ3QITDdugbi6ojQ64TO-30" value="" style="group" parent="1" vertex="1" connectable="0">
          <mxGeometry x="284" y="299" width="520" height="211" as="geometry" />
        </mxCell>
        <mxCell id="WZ3QITDdugbi6ojQ64TO-26" value="" style="endArrow=none;dashed=1;html=1;rounded=0;" parent="WZ3QITDdugbi6ojQ64TO-30" edge="1">
          <mxGeometry width="50" height="50" relative="1" as="geometry">
            <mxPoint y="211" as="sourcePoint" />
            <mxPoint x="520" y="211" as="targetPoint" />
          </mxGeometry>
        </mxCell>
        <mxCell id="WZ3QITDdugbi6ojQ64TO-27" value="" style="endArrow=none;dashed=1;html=1;rounded=0;" parent="WZ3QITDdugbi6ojQ64TO-30" edge="1">
          <mxGeometry width="50" height="50" relative="1" as="geometry">
            <mxPoint x="520" y="210" as="sourcePoint" />
            <mxPoint x="520" as="targetPoint" />
          </mxGeometry>
        </mxCell>
        <mxCell id="WZ3QITDdugbi6ojQ64TO-28" value="" style="endArrow=none;dashed=1;html=1;rounded=0;" parent="WZ3QITDdugbi6ojQ64TO-30" edge="1">
          <mxGeometry width="50" height="50" relative="1" as="geometry">
            <mxPoint y="210" as="sourcePoint" />
            <mxPoint as="targetPoint" />
          </mxGeometry>
        </mxCell>
        <mxCell id="WZ3QITDdugbi6ojQ64TO-29" value="" style="endArrow=none;dashed=1;html=1;rounded=0;" parent="WZ3QITDdugbi6ojQ64TO-30" edge="1">
          <mxGeometry width="50" height="50" relative="1" as="geometry">
            <mxPoint y="3" as="sourcePoint" />
            <mxPoint x="520" y="3" as="targetPoint" />
          </mxGeometry>
        </mxCell>
        <mxCell id="WZ3QITDdugbi6ojQ64TO-32" value="" style="shape=image;html=1;verticalAlign=top;verticalLabelPosition=bottom;labelBackgroundColor=#ffffff;imageAspect=0;aspect=fixed;image=https://cdn1.iconfinder.com/data/icons/ionicons-fill-vol-2/512/logo-docker-128.png" parent="WZ3QITDdugbi6ojQ64TO-30" vertex="1">
          <mxGeometry x="467" y="9" width="48" height="48" as="geometry" />
        </mxCell>
        <mxCell id="O65HJ4wUFkpnHU9ij8jX-1" value="Internet" style="sketch=0;outlineConnect=0;fontColor=#232F3E;gradientColor=none;fillColor=#232F3D;strokeColor=none;dashed=0;verticalLabelPosition=bottom;verticalAlign=top;align=center;html=1;fontSize=12;fontStyle=0;aspect=fixed;pointerEvents=1;shape=mxgraph.aws4.globe;" vertex="1" parent="1">
          <mxGeometry x="440" y="210" width="50" height="50" as="geometry" />
        </mxCell>
      </root>
    </mxGraphModel>
  </diagram>
</mxfile>
